<svg id="Layer_1" data-name="Layer 1" xmlns="http://www.w3.org/2000/svg" viewBox="0 0 388.8 218.14"><defs><style>.cls-1{fill:#002a3a;}.cls-2{fill:#33647e;}</style></defs><title>logo_final_solo</title><path class="cls-1" d="M111.6,468.75h22.25v4.57H116.7v10.83h13.06v4.51H116.7v15.51h-5.1Z" transform="translate(-111.6 -286.93)"/><path class="cls-1" d="M147.42,468.75h5.2l13.86,35.42H160.8l-3.67-9.88H142.59l-3.67,9.88h-5.36ZM155.59,490l-5.73-15.56L144.07,490Z" transform="translate(-111.6 -286.93)"/><path class="cls-1" d="M171.58,495.56a22.25,22.25,0,0,0,1.67,1.73,12,12,0,0,0,2.1,1.57A11.31,11.31,0,0,0,178,500a11.12,11.12,0,0,0,3.13.43,8.41,8.41,0,0,0,5.47-1.6,5.24,5.24,0,0,0,2-4.3,4.92,4.92,0,0,0-2.23-4.38,19.45,19.45,0,0,0-6.43-2.36,19.51,19.51,0,0,1-4.14-1.33,11.56,11.56,0,0,1-3.21-2.12,9,9,0,0,1-2.1-2.95,9.17,9.17,0,0,1-.74-3.8,9.31,9.31,0,0,1,.74-3.71,8.61,8.61,0,0,1,2.23-3.08,11.17,11.17,0,0,1,3.72-2.13,15.27,15.27,0,0,1,5.15-.79,16,16,0,0,1,4.48.55,14.44,14.44,0,0,1,3.22,1.36,9.76,9.76,0,0,1,2.12,1.65c.53.56.94,1,1.22,1.38l-3.4,3.13a13.14,13.14,0,0,0-1-1,9.21,9.21,0,0,0-1.62-1.2,10.37,10.37,0,0,0-2.28-1,10.14,10.14,0,0,0-3-.4,8.51,8.51,0,0,0-2.93.45,6.12,6.12,0,0,0-2,1.17,4.53,4.53,0,0,0-1.17,1.62,4.65,4.65,0,0,0-.37,1.81,4.31,4.31,0,0,0,.55,2.25,5.4,5.4,0,0,0,1.62,1.65,10.92,10.92,0,0,0,2.63,1.22c1,.34,2.24.66,3.59,1a27.88,27.88,0,0,1,3.85,1.25,12,12,0,0,1,3.37,2.07,9.51,9.51,0,0,1,2.36,3.18,10.94,10.94,0,0,1,.88,4.6,9.19,9.19,0,0,1-1,4.19,10.29,10.29,0,0,1-2.63,3.32,12.09,12.09,0,0,1-4,2.18,15.5,15.5,0,0,1-4.94.77,16.82,16.82,0,0,1-4.54-.58,19.51,19.51,0,0,1-3.72-1.49,16.23,16.23,0,0,1-2.92-2,14.85,14.85,0,0,1-2-2.15Z" transform="translate(-111.6 -286.93)"/><path class="cls-1" d="M209.27,473.21H196.59v-4.46H227v4.46H214.37v31h-5.1Z" transform="translate(-111.6 -286.93)"/><path class="cls-1" d="M272,498a12.26,12.26,0,0,1-1.8,2.18,16.62,16.62,0,0,1-3,2.31,17.82,17.82,0,0,1-4,1.83,16.08,16.08,0,0,1-5.05.75,18.24,18.24,0,0,1-7.16-1.38,16.61,16.61,0,0,1-5.58-3.86,17.55,17.55,0,0,1-3.64-5.84,21.2,21.2,0,0,1,0-14.62,18.47,18.47,0,0,1,3.64-5.95,17,17,0,0,1,5.6-4,17.65,17.65,0,0,1,7.25-1.46,16.75,16.75,0,0,1,8.95,2.42,15.14,15.14,0,0,1,2.86,2.25,16.39,16.39,0,0,1,1.94,2.34L268.37,478a22.25,22.25,0,0,0-1.51-1.89,10.8,10.8,0,0,0-2.1-1.77A11.6,11.6,0,0,0,262,473a11.44,11.44,0,0,0-3.67-.53,12,12,0,0,0-5.23,1.11,11.71,11.71,0,0,0-3.92,3,13,13,0,0,0-2.47,4.46,16.89,16.89,0,0,0-.85,5.41,16.38,16.38,0,0,0,.87,5.39,13.48,13.48,0,0,0,2.47,4.38,11.29,11.29,0,0,0,3.88,2.93,12,12,0,0,0,5.09,1.06,12.55,12.55,0,0,0,4.12-.61,12.24,12.24,0,0,0,2.92-1.46,11.42,11.42,0,0,0,2-1.73c.52-.58.95-1.07,1.31-1.46Z" transform="translate(-111.6 -286.93)"/><path class="cls-1" d="M277.88,468.75H283v14.81h19.38V468.75h5.1v35.42h-5.1v-16H283v16h-5.09Z" transform="translate(-111.6 -286.93)"/><path class="cls-1" d="M325.87,468.75h5.21l13.86,35.42h-5.69l-3.66-9.88H321l-3.66,9.88H312ZM334.05,490l-5.73-15.56L322.53,490Z" transform="translate(-111.6 -286.93)"/><path class="cls-1" d="M349.56,468.75h11.31a15.56,15.56,0,0,1,5.73.93,11.19,11.19,0,0,1,3.8,2.39,8.85,8.85,0,0,1,2.12,3.32,11.17,11.17,0,0,1,.66,3.77,11.3,11.3,0,0,1-1.59,6,9.53,9.53,0,0,1-4.94,3.87l8.29,15.14H369.2l-7.59-14.5h-7.12v14.5h-4.93Zm11.73,16.62a6.89,6.89,0,0,0,5-1.65,5.89,5.89,0,0,0,1.67-4.4,5.76,5.76,0,0,0-1.81-4.54,7.19,7.19,0,0,0-5-1.62h-6.69v12.21Z" transform="translate(-111.6 -286.93)"/><path class="cls-1" d="M399,486.17h12.42v14.12A18.35,18.35,0,0,1,409.1,502a15.75,15.75,0,0,1-3,1.51,21.91,21.91,0,0,1-3.85,1.07,26.59,26.59,0,0,1-4.78.4,18.9,18.9,0,0,1-7.46-1.41,16.62,16.62,0,0,1-9.3-9.72,21.08,21.08,0,0,1-1.24-7.35,20.14,20.14,0,0,1,1.3-7.28,18.22,18.22,0,0,1,3.64-5.92,17,17,0,0,1,5.6-4,17.58,17.58,0,0,1,7.25-1.46,17.79,17.79,0,0,1,5,.66,16.26,16.26,0,0,1,3.9,1.7,14.4,14.4,0,0,1,2.84,2.26,20.41,20.41,0,0,1,2,2.34l-3.61,3.08a19.75,19.75,0,0,0-1.54-1.89,11.36,11.36,0,0,0-2.13-1.78,12,12,0,0,0-2.79-1.32,10.91,10.91,0,0,0-3.58-.54,12,12,0,0,0-5.25,1.12,11.64,11.64,0,0,0-4,3,13.77,13.77,0,0,0-2.5,4.48,16.9,16.9,0,0,0-.87,5.44,16.06,16.06,0,0,0,.95,5.63,12.94,12.94,0,0,0,2.68,4.38,12.42,12.42,0,0,0,9.22,3.91,17.31,17.31,0,0,0,5.23-.69,11.53,11.53,0,0,0,3.69-1.92v-7.22H399Z" transform="translate(-111.6 -286.93)"/><path class="cls-1" d="M419.17,468.75h5.09v35.42h-5.09Z" transform="translate(-111.6 -286.93)"/><path class="cls-1" d="M432.33,468.75h5.15l19.33,27.66V468.75h5v35.42h-5.1l-19.38-27.72v27.72h-5Z" transform="translate(-111.6 -286.93)"/><path class="cls-1" d="M488,486.17H500.4v14.12a18.35,18.35,0,0,1-2.31,1.75,16.05,16.05,0,0,1-3,1.51,22,22,0,0,1-3.86,1.07,26.47,26.47,0,0,1-4.77.4,18.86,18.86,0,0,1-7.46-1.41,16.62,16.62,0,0,1-9.3-9.72,21.08,21.08,0,0,1-1.24-7.35,20.14,20.14,0,0,1,1.3-7.28,18.2,18.2,0,0,1,3.63-5.92,17.14,17.14,0,0,1,5.61-4,17.57,17.57,0,0,1,7.24-1.46,17.81,17.81,0,0,1,5,.66,16.44,16.44,0,0,1,3.9,1.7,14.4,14.4,0,0,1,2.84,2.26,21.49,21.49,0,0,1,2,2.34l-3.61,3.08a19.75,19.75,0,0,0-1.54-1.89,11.69,11.69,0,0,0-2.13-1.78,12,12,0,0,0-2.79-1.32,11,11,0,0,0-3.58-.54,12.12,12.12,0,0,0-5.26,1.12,11.7,11.7,0,0,0-3.95,3,13.77,13.77,0,0,0-2.5,4.48,16.9,16.9,0,0,0-.87,5.44,15.84,15.84,0,0,0,.95,5.63,12.94,12.94,0,0,0,2.68,4.38,12.38,12.38,0,0,0,9.22,3.91,17.31,17.31,0,0,0,5.23-.69,11.53,11.53,0,0,0,3.69-1.92v-7.22H488Z" transform="translate(-111.6 -286.93)"/><path class="cls-1" d="M295.86,289.19l-26,79.71a3.27,3.27,0,0,1-6.21,0l-26.7-79.77a3.26,3.26,0,0,0-3.1-2.23h-119a3.26,3.26,0,0,0-3.27,3.27V408.81a3.26,3.26,0,0,0,3.27,3.27H198a3.26,3.26,0,0,0,3.27-3.27V390.39a3.27,3.27,0,0,0-3.27-3.27H143.2a3.27,3.27,0,0,1-3.27-3.27V363.38a3.27,3.27,0,0,1,3.27-3.27h37.93a3.27,3.27,0,0,0,3.27-3.27V339.36a3.26,3.26,0,0,0-3.27-3.27H143.2a3.27,3.27,0,0,1-3.27-3.27V315a3.27,3.27,0,0,1,3.27-3.27h68.46a3.25,3.25,0,0,1,3.07,2.14l35.3,96.1a3.28,3.28,0,0,0,3.07,2.14h25.27a3.28,3.28,0,0,0,3.07-2.14L325,291.33a3.27,3.27,0,0,0-3.07-4.4H299A3.28,3.28,0,0,0,295.86,289.19Z" transform="translate(-111.6 -286.93)"/><path class="cls-2" d="M326.92,426.17a3.24,3.24,0,0,1,4.28-1.33,48.12,48.12,0,0,0,8.5,3.47,44.94,44.94,0,0,0,13,1.78q9.19,0,14.45-4.88t5.25-14.63h0a3.26,3.26,0,0,0-4.85-2.84q-7.3,4-17.66,4a43.3,43.3,0,0,1-16.8-3.09,34.35,34.35,0,0,1-12.48-8.73,39.19,39.19,0,0,1-7.78-13.32,53.53,53.53,0,0,1,.94-36.3,43.35,43.35,0,0,1,10.32-15,45.52,45.52,0,0,1,15.94-9.67,60.44,60.44,0,0,1,20.74-3.37,110.77,110.77,0,0,1,20.73,1.87A124.39,124.39,0,0,1,397.06,328a3.25,3.25,0,0,1,2.21,3.11v78.14q0,21.76-12,32.18t-32.83,10.42a83.57,83.57,0,0,1-20.64-2.26,52.59,52.59,0,0,1-13.32-5.37,3.3,3.3,0,0,1-1.26-4.49Zm45.71-77.36a3.32,3.32,0,0,0-2.42-3.17c-.95-.25-1.89-.47-2.84-.64a41.3,41.3,0,0,0-6.94-.47,24.25,24.25,0,0,0-10.13,2,20.83,20.83,0,0,0-11.54,12.95,30.34,30.34,0,0,0-1.41,9.29q0,9.57,4.6,15.2t13.42,5.62q8.25,0,12.75-4t4.51-12.66Z" transform="translate(-111.6 -286.93)"/><path class="cls-2" d="M406,368a48.22,48.22,0,0,1,3.47-18.3,46.16,46.16,0,0,1,9.67-14.91,44.29,44.29,0,0,1,14.92-10,49.18,49.18,0,0,1,19.23-3.66,48.51,48.51,0,0,1,19.13,3.66,44.61,44.61,0,0,1,14.83,10,46.13,46.13,0,0,1,9.66,14.91,50,50,0,0,1,0,36.59,45.31,45.31,0,0,1-24.49,25.05,47.49,47.49,0,0,1-19.13,3.75,48.15,48.15,0,0,1-19.23-3.75,45.56,45.56,0,0,1-14.92-10.13,46.2,46.2,0,0,1-9.67-14.92A48.17,48.17,0,0,1,406,368Zm47.29,23.64A19.42,19.42,0,0,0,469,384.31a22.7,22.7,0,0,0,4-7.6,29.71,29.71,0,0,0,0-17.45,21.78,21.78,0,0,0-4-7.5,20.38,20.38,0,0,0-6.66-5.26,19.89,19.89,0,0,0-9-2,20.48,20.48,0,0,0-9.1,2,19,19,0,0,0-6.66,5.26,24,24,0,0,0-4,7.5,27.7,27.7,0,0,0,0,17.45,25.09,25.09,0,0,0,4,7.6,18.59,18.59,0,0,0,6.66,5.35A20.48,20.48,0,0,0,453.31,391.63Z" transform="translate(-111.6 -286.93)"/><path class="cls-1" d="M489.52,326.54a5.41,5.41,0,0,1,1.58-3.87,5.19,5.19,0,0,1,1.73-1.17,5.66,5.66,0,0,1,4.28,0,5.25,5.25,0,0,1,1.72,1.17A5.57,5.57,0,0,1,500,324.4a5.64,5.64,0,0,1,0,4.27,5.73,5.73,0,0,1-1.15,1.74,5.56,5.56,0,0,1-6,1.16,5.32,5.32,0,0,1-1.73-1.16,5.58,5.58,0,0,1-1.16-1.74A5.4,5.4,0,0,1,489.52,326.54Zm5.44,4.8a4.6,4.6,0,0,0,1.87-.38,4.51,4.51,0,0,0,1.47-1,4.62,4.62,0,0,0,1-1.53,5,5,0,0,0,.34-1.86,5.07,5.07,0,0,0-.34-1.86,4.68,4.68,0,0,0-1-1.52,4.39,4.39,0,0,0-1.47-1,4.91,4.91,0,0,0-3.74,0,4.53,4.53,0,0,0-1.48,1,4.71,4.71,0,0,0-1,1.52,5.07,5.07,0,0,0-.34,1.86,5,5,0,0,0,.34,1.86,4.52,4.52,0,0,0,2.45,2.55A4.6,4.6,0,0,0,495,331.34Zm-1.69-7.63h1.91a1.92,1.92,0,0,1,1.41.47,1.63,1.63,0,0,1,.45,1.15,1.8,1.8,0,0,1-.3,1.05,1.89,1.89,0,0,1-.92.66l1.41,2.37h-.77l-1.36-2.3h-1.16v2.3h-.67Zm1.89,2.83a1.2,1.2,0,0,0,.89-.32,1.24,1.24,0,0,0,.3-.87c0-.71-.45-1.07-1.34-1.07h-1.07v2.26Z" transform="translate(-111.6 -286.93)"/></svg>